<svg version="1.1" id="Layer_3" xmlns="http://www.w3.org/2000/svg" xmlns:xlink="http://www.w3.org/1999/xlink" x="0px" y="0px"
	 width="61px" height="61px" viewBox="0 0 61 61" enable-background="new 0 0 61 61" xml:space="preserve">
<g>
	<path fill="#E9CA17" stroke="#E9CA17" stroke-miterlimit="10" d="M30.499,0.5l0.046,1.75c7.546,0.012,14.636,2.962,19.962,8.307
		c5.328,5.344,8.256,12.442,8.243,19.988C58.726,46.098,46.053,58.75,30.455,58.75c-7.546-0.012-14.636-2.962-19.963-8.307
		C5.165,45.1,2.238,38.001,2.25,30.455C2.274,14.902,14.947,2.25,30.499,2.25V0.5 M30.499,0.5C13.952,0.5,0.526,13.9,0.5,30.452
		C0.474,47.021,13.882,60.474,30.452,60.5c0.016,0,0.033,0,0.049,0c16.545,0,29.973-13.4,29.999-29.952
		C60.526,13.979,47.116,0.526,30.548,0.5C30.532,0.5,30.515,0.5,30.499,0.5L30.499,0.5z"/>
	<g>
		<path fill="#E9CA17" stroke="#E9CA17" stroke-miterlimit="10" d="M43.757,20.178c0-0.012,0-0.022-0.001-0.033
			c-0.003-0.039-0.007-0.077-0.015-0.114c0-0.002,0-0.004,0-0.006c-0.008-0.041-0.02-0.08-0.033-0.12
			c-0.004-0.008-0.006-0.016-0.01-0.023c-0.012-0.036-0.027-0.07-0.045-0.105c-0.002-0.003-0.003-0.006-0.004-0.008
			c-0.02-0.037-0.041-0.07-0.065-0.104c-0.005-0.008-0.011-0.015-0.017-0.022c-0.025-0.033-0.053-0.064-0.081-0.094l-0.001-0.002
			l-6.553-6.572v-0.001c-0.029-0.03-0.061-0.056-0.096-0.081c-0.006-0.006-0.014-0.012-0.021-0.017
			c-0.033-0.024-0.067-0.047-0.104-0.066c-0.002-0.001-0.006-0.003-0.008-0.003c-0.035-0.019-0.07-0.034-0.107-0.048
			c-0.008-0.003-0.014-0.006-0.021-0.009c-0.039-0.013-0.079-0.024-0.12-0.033h-0.004c-0.038-0.008-0.077-0.012-0.116-0.015
			c-0.011-0.001-0.021-0.001-0.032-0.001s-0.021-0.002-0.032-0.003l-13.594-0.021c-0.518-0.001-0.938,0.419-0.939,0.937
			l-0.046,29.062c-0.001,0.518,0.419,0.938,0.937,0.939l20.156,0.031c0.518,0.001,0.938-0.418,0.938-0.936l0.036-22.5
			C43.759,20.198,43.758,20.188,43.757,20.178z M37.203,15.898l3.356,3.367l-3.361-0.005L37.203,15.898z M23.567,41.739
			l0.044-27.188l11.718,0.02l-0.008,5.625c-0.002,0.518,0.418,0.938,0.936,0.939l5.625,0.008l-0.033,20.626L23.567,41.739z"/>
		<path fill="#E9CA17" stroke="#E9CA17" stroke-miterlimit="10" d="M39.028,46.451l-20.155-0.032l0.046-29.062
			c0.002-0.517-0.418-0.938-0.936-0.938c-0.518-0.002-0.938,0.418-0.939,0.936l-0.047,30c-0.002,0.518,0.418,0.938,0.936,0.939
			l21.094,0.033c0.518,0.001,0.938-0.418,0.939-0.936C39.966,46.873,39.546,46.452,39.028,46.451z"/>
	</g>
</g>
</svg>