<svg version="1.1" id="ICONS" xmlns="http://www.w3.org/2000/svg" xmlns:xlink="http://www.w3.org/1999/xlink" x="0px" y="0px"
	 width="32px" height="32px" viewBox="0 0 32 32" enable-background="new 0 0 32 32" xml:space="preserve">
<path fill="#9E9E9E" d="M16,0C7.163,0,0,7.163,0,16s7.163,16,16,16c8.836,0,16-7.163,16-16S24.836,0,16,0z M16,31
	C7.716,31,1,24.284,1,16S7.716,1,16,1s15,6.716,15,15S24.284,31,16,31z"/>
<g>
	<path fill="#9E9E9E" d="M16.766,26.161h-3.662c-0.276,0-0.5-0.223-0.5-0.5v-8.355h-2.377c-0.276,0-0.5-0.225-0.5-0.5V12.88
		c0-0.275,0.224-0.5,0.5-0.5h2.377v-1.029c0-2.986,2.25-5.51,4.914-5.51h3.173c0.276,0,0.5,0.224,0.5,0.5v3.924
		c0,0.275-0.224,0.5-0.5,0.5h-3.167c-0.059,0.016-0.258,0.184-0.258,0.553v1.062h3.425c0.276,0,0.5,0.225,0.5,0.5v3.926
		c0,0.275-0.224,0.5-0.5,0.5h-3.425v8.355C17.266,25.938,17.042,26.161,16.766,26.161z M13.604,25.161h2.662v-8.355
		c0-0.277,0.224-0.5,0.5-0.5h3.425V13.38h-3.425c-0.276,0-0.5-0.223-0.5-0.5v-1.562c0-0.928,0.647-1.553,1.252-1.553h2.673V6.841
		h-2.673c-2.084,0-3.914,2.107-3.914,4.51v1.529c0,0.277-0.224,0.5-0.5,0.5h-2.377v2.926h2.377c0.276,0,0.5,0.223,0.5,0.5V25.161z"
		/>
</g>
</svg>