<svg version="1.1" id="Layer_3" xmlns="http://www.w3.org/2000/svg" xmlns:xlink="http://www.w3.org/1999/xlink" x="0px" y="0px"
	 width="61px" height="61px" viewBox="0 0 61 61" enable-background="new 0 0 61 61" xml:space="preserve">
<g>
	<path fill="#71B220" stroke="#71B220" stroke-miterlimit="10" d="M30.5,2.25c15.577,0,28.25,12.673,28.25,28.25
		S46.077,58.75,30.5,58.75S2.25,46.077,2.25,30.5S14.923,2.25,30.5,2.25 M30.5,0.5c-16.569,0-30,13.432-30,30s13.431,30,30,30
		c16.568,0,30-13.432,30-30S47.068,0.5,30.5,0.5L30.5,0.5z"/>
	<path fill="#71B220" stroke="#71B220" stroke-miterlimit="10" d="M48.882,16.864c-0.234-0.177-0.536-0.235-0.818-0.158
		l-32.557,8.97l-3.496-1.015c-0.283-0.083-0.588-0.026-0.824,0.15c-0.234,0.177-0.375,0.454-0.375,0.749v9.628
		c0,0.299,0.143,0.578,0.382,0.756c0.241,0.176,0.552,0.229,0.836,0.139l3.262-1.02c0.067,0.016,0.137,0.025,0.209,0.025
		c0.08,0,0.157-0.012,0.23-0.031l5.165,1.476c0,0.011,0,0.022,0,0.032c0.052,2.082,0.906,4.033,2.401,5.494
		c1.497,1.464,3.474,2.27,5.562,2.27c2.714,0,5.203-1.367,6.669-3.615l12.527,3.58c0.084,0.023,0.171,0.035,0.256,0.035
		c0.202,0,0.401-0.064,0.564-0.189c0.236-0.177,0.374-0.453,0.374-0.748V17.61C49.25,17.318,49.112,17.042,48.882,16.864z
		 M28.859,42.454c-3.085,0-5.687-2.363-6.048-5.373l10.801,3.086C32.468,41.601,30.733,42.454,28.859,42.454z M47.375,42.149
		l-11.886-3.396c-0.093-0.043-0.187-0.068-0.281-0.08l-22.141-6.432l-0.021-4.023l34.328-9.377V42.149z"/>
</g>
</svg>