<svg version="1.1" id="Layer_3" xmlns="http://www.w3.org/2000/svg" xmlns:xlink="http://www.w3.org/1999/xlink" x="0px" y="0px"
	 width="61px" height="61px" viewBox="0 0 61 61" enable-background="new 0 0 61 61" xml:space="preserve">
<g>
	<g>
		<path fill="#71B220" stroke="#71B220" stroke-miterlimit="10" d="M30.5,22.5c-5.183,0-9.399,3.588-9.399,8c0,4.41,4.217,8,9.399,8
			c5.184,0,9.4-3.59,9.4-8C39.9,26.088,35.684,22.5,30.5,22.5z M30.5,36.5c-4.08,0-7.399-2.691-7.399-6s3.319-6,7.399-6
			c4.081,0,7.4,2.691,7.4,6S34.581,36.5,30.5,36.5z"/>
		<path fill="#71B220" stroke="#71B220" stroke-miterlimit="10" d="M51.5,26.68l-0.031-4.711c0-4.875-12.188-7.469-20.984-7.469
			S9.5,17.094,9.5,21.969v4.719c0,2.031,4.196,2.25,6,2.25c0.167,0,0.333-0.004,0.498-0.008l-1.073,6.438
			C14.689,36.773,14.5,39.074,14.5,40.5V43c0,1.93,1.57,3.5,3.5,3.5h25c1.93,0,3.5-1.57,3.5-3.5v-2.5
			c0-1.424-0.19-3.727-0.424-5.133l-1.073-6.438c0.165,0.004,0.331,0.008,0.497,0.008C47.305,28.938,51.5,28.719,51.5,26.68z
			 M42.824,28.027l1.279,7.67c0.215,1.295,0.396,3.494,0.396,4.803V43c0,0.828-0.673,1.5-1.5,1.5H18c-0.828,0-1.5-0.672-1.5-1.5
			v-2.5c0-1.312,0.182-3.512,0.396-4.801l1.279-7.672c0.051-0.305-0.043-0.617-0.253-0.844c-0.19-0.205-0.456-0.32-0.733-0.32
			c-0.029,0-0.059,0-0.089,0.004c-0.513,0.047-1.052,0.07-1.601,0.07c-2.1,0-3.508-0.332-4-0.57v-4.398
			c0-0.863,1.484-2.328,5.666-3.621c3.807-1.176,8.66-1.848,13.318-1.848s9.513,0.672,13.318,1.848
			c4.183,1.293,5.666,2.758,5.666,3.629l0.029,4.395c-0.494,0.234-1.9,0.566-3.998,0.566c-0.549,0-1.088-0.023-1.6-0.07
			c-0.308-0.027-0.613,0.09-0.822,0.316C42.867,27.41,42.773,27.723,42.824,28.027z"/>
	</g>
	<path fill="#71B220" stroke="#71B220" stroke-miterlimit="10" d="M30.5,2.25c15.577,0,28.25,12.672,28.25,28.25
		c0,15.576-12.673,28.25-28.25,28.25S2.25,46.076,2.25,30.5C2.25,14.922,14.923,2.25,30.5,2.25 M30.5,0.5c-16.569,0-30,13.432-30,30
		s13.431,30,30,30c16.568,0,30-13.432,30-30S47.068,0.5,30.5,0.5L30.5,0.5z"/>
</g>
</svg>