<svg version="1.1" id="Layer_3" xmlns="http://www.w3.org/2000/svg" xmlns:xlink="http://www.w3.org/1999/xlink" x="0px" y="0px"
	 width="61px" height="61px" viewBox="0 0 61 61" enable-background="new 0 0 61 61" xml:space="preserve">
<g>
	<path fill="#71B220" stroke="#71B220" stroke-miterlimit="10" d="M30.5,2.25c15.577,0,28.25,12.673,28.25,28.25
		S46.077,58.75,30.5,58.75S2.25,46.077,2.25,30.5S14.923,2.25,30.5,2.25 M30.5,0.5c-16.569,0-30,13.432-30,30s13.431,30,30,30
		c16.568,0,30-13.432,30-30S47.068,0.5,30.5,0.5L30.5,0.5z"/>
	<g>
		<g>
			<path fill="#71B220" stroke="#71B220" stroke-miterlimit="10" d="M46.651,44.329H14.113c-1.885,0-3.42-1.534-3.42-3.42V23.508
				c0-1.886,1.535-3.42,3.42-3.42h7.416l2.115-5.604c0.14-0.364,0.489-0.605,0.879-0.605h11.719c0.39,0,0.738,0.241,0.877,0.605
				l2.115,5.604h7.417c1.886,0,3.419,1.534,3.419,3.42v17.401C50.07,42.795,48.537,44.329,46.651,44.329z M14.113,21.963
				c-0.851,0-1.543,0.694-1.543,1.545v17.401c0,0.851,0.692,1.545,1.543,1.545h32.538c0.852,0,1.542-0.694,1.542-1.545V23.508
				c0-0.851-0.69-1.545-1.542-1.545h-8.065c-0.39,0-0.739-0.242-0.877-0.606l-2.115-5.603H25.172l-2.115,5.603
				c-0.138,0.364-0.487,0.606-0.877,0.606H14.113z M30.383,40.466c-4.847,0-8.791-3.944-8.791-8.791s3.944-8.791,8.791-8.791
				c4.846,0,8.791,3.944,8.791,8.791S35.229,40.466,30.383,40.466z M30.383,24.759c-3.813,0-6.916,3.102-6.916,6.916
				s3.103,6.916,6.916,6.916s6.914-3.102,6.914-6.916S34.196,24.759,30.383,24.759z"/>
		</g>
		<path fill="#71B220" stroke="#71B220" stroke-miterlimit="10" d="M22.061,30.269H11.633c-0.52,0-0.939-0.42-0.939-0.938
			c0-0.519,0.42-0.938,0.939-0.938h10.428c0.52,0,0.939,0.419,0.939,0.938C23,29.849,22.58,30.269,22.061,30.269z"/>
		<path fill="#71B220" stroke="#71B220" stroke-miterlimit="10" d="M49.016,30.269H38.703c-0.518,0-0.938-0.42-0.938-0.938
			c0-0.519,0.42-0.938,0.938-0.938h10.312c0.519,0,0.938,0.419,0.938,0.938C49.953,29.849,49.534,30.269,49.016,30.269z"/>
	</g>
</g>
</svg>
