<?xml version="1.0" encoding="utf-8"?>
<!-- Generator: Adobe Illustrator 16.0.0, SVG Export Plug-In . SVG Version: 6.00 Build 0)  -->
<!DOCTYPE svg PUBLIC "-//W3C//DTD SVG 1.1//EN" "http://www.w3.org/Graphics/SVG/1.1/DTD/svg11.dtd">
<svg version="1.1" id="Layer_1" xmlns="http://www.w3.org/2000/svg" xmlns:xlink="http://www.w3.org/1999/xlink" x="0px" y="0px"
	 width="20px" height="20px" viewBox="0 0 20 20" enable-background="new 0 0 20 20" xml:space="preserve">
<path fill="#FFFFFF" d="M10,0C4.477,0,0,4.477,0,10c0,5.523,4.477,10,10,10c5.521,0,10-4.477,10-10C20,4.477,15.521,0,10,0z
	 M10,19.375c-5.178,0-9.375-4.197-9.375-9.375S4.822,0.625,10,0.625c5.178,0,9.375,4.197,9.375,9.375S15.178,19.375,10,19.375z"/>
<g>
	<path fill="#FFFFFF" d="M10,7.5c-1.62,0-2.938,1.122-2.938,2.5S8.38,12.5,10,12.5s2.938-1.122,2.938-2.5S11.62,7.5,10,7.5z
		 M10,11.876c-1.275,0-2.312-0.841-2.312-1.875S8.726,8.126,10,8.126c1.275,0,2.312,0.841,2.312,1.875S11.275,11.876,10,11.876z"/>
	<path fill="#FFFFFF" d="M16.562,8.807l-0.011-1.472C16.553,5.811,12.744,5,9.995,5S3.438,5.811,3.438,7.334v1.475
		c0,0.635,1.312,0.703,1.875,0.703c0.052,0,0.104-0.001,0.156-0.002l-0.335,2.012C5.059,11.961,5,12.68,5,13.126v0.781
		c0,0.603,0.491,1.094,1.094,1.094h7.812c0.604,0,1.094-0.491,1.094-1.094v-0.781c0-0.444-0.061-1.165-0.133-1.604L14.532,9.51
		c0.052,0.001,0.104,0.002,0.155,0.002C15.252,9.512,16.562,9.444,16.562,8.807z M13.852,9.228l0.399,2.397
		c0.067,0.404,0.124,1.092,0.124,1.501v0.781c0,0.259-0.21,0.469-0.469,0.469H6.094c-0.259,0-0.469-0.21-0.469-0.469v-0.781
		c0-0.41,0.057-1.099,0.124-1.501l0.399-2.397C6.165,9.133,6.135,9.035,6.07,8.964c-0.06-0.064-0.143-0.1-0.229-0.1
		c-0.009,0-0.018,0-0.028,0.001c-0.16,0.015-0.329,0.022-0.5,0.022c-0.656,0-1.096-0.104-1.25-0.178V7.334
		c0-0.27,0.464-0.728,1.771-1.131C7.022,5.835,8.54,5.625,9.995,5.625c1.456,0,2.973,0.21,4.162,0.578
		c1.307,0.404,1.771,0.862,1.771,1.134l0.01,1.374c-0.154,0.073-0.595,0.177-1.25,0.177c-0.172,0-0.34-0.007-0.5-0.022
		c-0.096-0.008-0.19,0.028-0.256,0.099C13.865,9.036,13.836,9.133,13.852,9.228z"/>
</g>
</svg>
