<svg version="1.1" id="ICONS" xmlns="http://www.w3.org/2000/svg" xmlns:xlink="http://www.w3.org/1999/xlink" x="0px" y="0px"
	 width="32px" height="32px" viewBox="0 0 32 32" enable-background="new 0 0 32 32" xml:space="preserve">
<g>
	<path fill="#FFFFFF" d="M16,0C7.163,0,0,7.163,0,16s7.163,16,16,16c8.836,0,16-7.163,16-16S24.836,0,16,0z M16,31
		C7.716,31,1,24.284,1,16S7.716,1,16,1s15,6.716,15,15S24.284,31,16,31z"/>
	<path fill="#FFFFFF" d="M20.561,17.31c-0.508-0.133-0.946-0.248-1.127-0.328c-0.341-0.152-0.465-0.789-0.444-1.402
		c0.488-0.578,0.864-1.451,1.144-2.658c0.214-0.139,0.414-0.363,0.589-0.667c0.338-0.587,0.604-1.526,0.389-2.198
		c-0.139-0.436-0.41-0.709-0.626-0.869c0.001-0.32,0-0.854-0.012-1.283c-0.053-1.986-1.127-2.949-2.019-3.408
		c-0.979-0.502-2.031-0.558-2.444-0.558c-0.005-0.001-0.01-0.001-0.016,0c-0.415,0-1.467,0.056-2.446,0.558
		c-0.892,0.459-1.966,1.422-2.019,3.408c-0.012,0.43-0.013,0.963-0.013,1.283c-0.216,0.16-0.486,0.434-0.626,0.869
		c-0.215,0.672,0.052,1.611,0.389,2.199c0.174,0.303,0.375,0.528,0.588,0.666c0.28,1.207,0.655,2.08,1.144,2.658
		c0.021,0.613-0.104,1.25-0.444,1.402c-0.181,0.08-0.619,0.195-1.127,0.328C9.218,17.888,5.5,18.854,5.5,21.271v1.994
		c0,0.275,0.224,0.5,0.5,0.5c0.276,0,0.5-0.225,0.5-0.5v-1.994c0-1.643,3.377-2.521,5.191-2.994
		c0.596-0.154,1.027-0.268,1.284-0.383c1.064-0.479,1.07-1.947,1.023-2.557c-0.009-0.117-0.058-0.225-0.139-0.309
		c-0.452-0.469-0.801-1.307-1.068-2.559c-0.041-0.189-0.186-0.338-0.374-0.383c-0.072-0.033-0.277-0.252-0.446-0.705
		c-0.169-0.455-0.188-0.84-0.129-1.021c0.092-0.289,0.33-0.412,0.365-0.43c0.197-0.072,0.311-0.256,0.309-0.465
		c0-0.01-0.006-0.904,0.011-1.535c0.074-2.773,2.66-2.993,3.465-2.993c0.005,0,0.01,0,0.015,0c0.804,0,3.39,0.22,3.464,2.993
		c0.017,0.631,0.011,1.525,0.011,1.535c-0.001,0.209,0.112,0.393,0.309,0.465c0.036,0.018,0.273,0.141,0.366,0.43
		c0.058,0.182,0.04,0.566-0.129,1.021c-0.169,0.453-0.374,0.672-0.446,0.705c-0.188,0.045-0.333,0.193-0.374,0.383
		c-0.268,1.252-0.617,2.09-1.069,2.559c-0.081,0.084-0.129,0.191-0.139,0.309c-0.047,0.609-0.042,2.078,1.023,2.557
		c0.257,0.115,0.688,0.229,1.285,0.383c1.814,0.473,5.191,1.352,5.191,2.994v1.916v0.078c0,0.275,0.224,0.5,0.5,0.5
		c0.276,0,0.5-0.225,0.5-0.5v-1.994C26.5,18.854,22.782,17.888,20.561,17.31z"/>
</g>
</svg>