<svg version="1.1" id="Layer_3" xmlns="http://www.w3.org/2000/svg" xmlns:xlink="http://www.w3.org/1999/xlink" x="0px" y="0px"
	 width="62.75px" height="62.75px" viewBox="0 0 62.75 62.75" enable-background="new 0 0 62.75 62.75" xml:space="preserve">
<g>
	<path fill="#E9CA17" stroke="#E9CA17" stroke-miterlimit="10" d="M31.375,62.25C14.351,62.25,0.5,48.399,0.5,31.375
		S14.351,0.5,31.375,0.5S62.25,14.351,62.25,31.375S48.399,62.25,31.375,62.25z M31.375,2.25C15.315,2.25,2.25,15.315,2.25,31.375
		S15.315,60.5,31.375,60.5S60.5,47.435,60.5,31.375S47.435,2.25,31.375,2.25z"/>
	<path fill="#E9CA17" stroke="#E9CA17" stroke-miterlimit="10" d="M47.133,30.576c-0.575-0.15-1.171-0.305-1.376-0.396
		c-0.236-0.108-0.391-0.687-0.383-1.381c0.605-0.749,1.062-1.811,1.412-3.286c0.271-0.204,0.521-0.497,0.738-0.876
		c0.475-0.823,0.818-2.078,0.516-3.021c-0.172-0.543-0.488-0.912-0.774-1.152c0-0.41-0.003-0.998-0.016-1.483
		c-0.105-3.918-3.266-5.308-5.942-5.308c-0.008,0-0.018,0-0.025,0c-2.68,0-5.839,1.39-5.943,5.308
		c-0.014,0.485-0.016,1.073-0.016,1.483c-0.287,0.24-0.604,0.609-0.777,1.152c-0.301,0.942,0.043,2.197,0.518,3.021
		c0.217,0.379,0.467,0.672,0.738,0.876c0.352,1.476,0.807,2.537,1.412,3.286c0.008,0.694-0.146,1.272-0.383,1.381
		c-0.289,0.128-1.922,0.603-3.005,0.915c-0.569,0.165-1.122,0.324-1.57,0.458c-0.094,0.029-0.18,0.069-0.257,0.123
		c-0.311-0.085-0.611-0.163-0.895-0.236c-0.726-0.188-1.41-0.367-1.668-0.483c-0.405-0.182-0.58-1.034-0.562-1.875
		c0.732-0.885,1.28-2.161,1.702-3.959c0.323-0.227,0.622-0.573,0.882-1.025c0.529-0.919,0.943-2.393,0.603-3.459
		c-0.208-0.65-0.599-1.078-0.934-1.343c0.001-0.49-0.003-1.239-0.019-1.849c-0.082-3.084-1.754-4.579-3.142-5.292
		c-1.511-0.776-3.13-0.86-3.765-0.86c-0.009,0-0.017,0-0.024,0c-0.639,0-2.259,0.084-3.769,0.86
		c-1.388,0.713-3.059,2.208-3.141,5.292c-0.018,0.61-0.02,1.358-0.02,1.849c-0.335,0.265-0.727,0.692-0.934,1.343
		c-0.342,1.066,0.073,2.54,0.602,3.459c0.261,0.452,0.56,0.799,0.884,1.025c0.421,1.798,0.97,3.074,1.702,3.959
		c0.018,0.841-0.158,1.693-0.562,1.875c-0.258,0.116-0.943,0.295-1.668,0.483c-3.397,0.884-9.084,2.363-9.084,6.146v2.009
		c0,0.519,0.42,0.938,0.938,0.938s0.938-0.419,0.938-0.938v-2.009c0-2.333,5.188-3.684,7.68-4.332
		c0.908-0.236,1.564-0.406,1.965-0.588c1.71-0.768,1.724-3.076,1.648-4.034c-0.016-0.216-0.107-0.421-0.26-0.578
		c-0.646-0.67-1.172-1.938-1.562-3.765c-0.073-0.345-0.333-0.617-0.671-0.709c-0.378-0.247-0.967-1.731-0.763-2.371
		c0.11-0.348,0.392-0.505,0.448-0.534c0.371-0.134,0.579-0.475,0.576-0.872c0-0.015-0.009-1.356,0.016-2.307
		c0.105-3.902,3.543-4.327,5.035-4.327c0.009,0,0.018,0,0.025,0c1.49,0,4.927,0.425,5.032,4.327
		c0.024,0.948,0.017,2.292,0.016,2.307c-0.003,0.385,0.229,0.731,0.587,0.876c0.003,0.001,0.32,0.16,0.438,0.529
		c0.205,0.641-0.385,2.125-0.763,2.372c-0.339,0.092-0.597,0.364-0.671,0.709c-0.39,1.827-0.916,3.095-1.562,3.765
		c-0.15,0.157-0.242,0.362-0.26,0.578c-0.072,0.958-0.061,3.267,1.649,4.034c0.401,0.182,1.056,0.352,1.965,0.588
		c2.493,0.648,7.681,1.999,7.681,4.332v13.788c0,0.518,0.419,0.938,0.938,0.938c0.518,0,0.938-0.42,0.938-0.938V37.587
		c0-2.461-2.406-3.946-5.023-4.928c1.293-0.377,2.115-0.626,2.434-0.769c1.521-0.683,1.535-2.699,1.472-3.534
		c-0.017-0.217-0.108-0.421-0.261-0.578c-0.521-0.542-0.949-1.579-1.271-3.084c-0.071-0.335-0.317-0.601-0.64-0.701
		c-0.311-0.255-0.705-1.373-0.566-1.806c0.07-0.221,0.245-0.329,0.291-0.354c0.378-0.132,0.578-0.471,0.575-0.872
		c-0.001-0.011-0.009-1.135,0.013-1.93c0.085-3.141,2.866-3.482,4.073-3.482c0.007,0,0.014,0,0.021,0
		c1.205,0,3.984,0.342,4.069,3.482c0.021,0.793,0.014,1.918,0.014,1.93c-0.003,0.385,0.229,0.732,0.587,0.875
		c0.002,0.002,0.203,0.112,0.279,0.352c0.139,0.433-0.256,1.551-0.566,1.806c-0.322,0.101-0.568,0.366-0.64,0.701
		c-0.321,1.505-0.749,2.542-1.271,3.084c-0.151,0.157-0.243,0.36-0.26,0.578c-0.063,0.835-0.05,2.852,1.472,3.534
		c0.348,0.155,0.902,0.3,1.672,0.5c2.054,0.534,6.33,1.647,6.33,3.488v2.688c0,0.518,0.419,0.938,0.938,0.938
		c0.517,0,0.938-0.42,0.938-0.938v-2.688C54.866,32.59,50.024,31.328,47.133,30.576z"/>
</g>
</svg>