<svg version="1.1" id="Layer_3" xmlns="http://www.w3.org/2000/svg" xmlns:xlink="http://www.w3.org/1999/xlink" x="0px" y="0px"
	 width="61px" height="61px" viewBox="0 0 61 61" enable-background="new 0 0 61 61" xml:space="preserve">
<g>
	<path fill="#E9CA17" stroke="#E9CA17" stroke-miterlimit="10" d="M30.5,2.25c15.577,0,28.25,12.673,28.25,28.25
		S46.077,58.75,30.5,58.75S2.25,46.077,2.25,30.5S14.923,2.25,30.5,2.25 M30.5,0.5c-16.569,0-30,13.432-30,30s13.431,30,30,30
		c16.568,0,30-13.432,30-30S47.068,0.5,30.5,0.5L30.5,0.5z"/>
	<path fill="#E9CA17" stroke="#E9CA17" stroke-miterlimit="10" d="M48.932,30.505c0-0.002,0-0.002,0-0.004
		c0-10.173-8.276-18.452-18.451-18.452c-6.514,0-12.251,3.394-15.534,8.506c-0.037,0.048-0.07,0.099-0.099,0.154
		c-1.784,2.84-2.818,6.197-2.818,9.792c0,0.002,0,0.002,0,0.004l0,0v0.001c0.001,3.593,1.035,6.949,2.818,9.788
		c0.028,0.055,0.062,0.105,0.099,0.153c3.283,5.112,9.021,8.505,15.534,8.505C40.653,48.952,48.929,40.678,48.932,30.505
		L48.932,30.505L48.932,30.505z M44.743,38.938h-5.126c0.677-2.289,1.077-4.828,1.15-7.496h6.263
		C46.876,34.168,46.062,36.719,44.743,38.938z M13.931,31.442h6.262c0.073,2.668,0.476,5.207,1.151,7.496h-5.126
		C14.899,36.719,14.085,34.168,13.931,31.442z M16.218,22.063h5.161c-0.688,2.287-1.101,4.83-1.183,7.504h-6.266
		C14.082,26.839,14.897,24.284,16.218,22.063z M31.418,20.188v-6.235c0.042,0.014,0.223,0.074,0.454,0.188
		c0.016,0.008,0.03,0.019,0.046,0.025c2.024,1.038,3.747,3.199,4.976,6.022H31.418z M37.606,22.063
		c0.74,2.258,1.192,4.817,1.282,7.504h-7.471v-7.504H37.606z M28.85,14.271c0.001-0.002,0.002-0.002,0.005-0.004
		c0.025-0.015,0.051-0.027,0.076-0.04c0.124-0.064,0.353-0.178,0.612-0.274v6.236h-5.477C25.256,17.455,26.909,15.346,28.85,14.271z
		 M29.543,22.063v7.504h-7.471c0.09-2.687,0.542-5.246,1.283-7.504H29.543z M22.068,31.442h7.475v7.496h-6.227
		C22.591,36.679,22.147,34.123,22.068,31.442z M29.543,40.813v6.22c-0.429-0.053-0.85-0.274-1.081-0.416
		c-1.8-1.147-3.332-3.2-4.446-5.804H29.543z M32.57,46.57c-0.254,0.159-0.71,0.414-1.146,0.479c-0.002,0-0.005,0-0.007,0v-6.236
		h5.526C35.845,43.383,34.34,45.415,32.57,46.57z M31.418,38.938v-7.496h7.474c-0.08,2.681-0.521,5.236-1.248,7.496H31.418z
		 M40.764,29.567c-0.081-2.674-0.493-5.217-1.182-7.504h5.161c1.318,2.221,2.135,4.775,2.287,7.504H40.764z M43.449,20.188h-4.514
		c-0.845-2.149-1.952-4.003-3.265-5.431C38.766,15.781,41.46,17.691,43.449,20.188z M25.29,14.758
		c-1.312,1.428-2.42,3.281-3.264,5.431h-4.514C19.502,17.691,22.194,15.781,25.29,14.758z M17.513,40.813h4.468
		c0.818,2.116,1.892,3.951,3.162,5.383C22.11,45.162,19.47,43.271,17.513,40.813z M35.818,46.196
		c1.271-1.432,2.343-3.267,3.162-5.383h4.469C41.491,43.271,38.852,45.162,35.818,46.196z"/>
</g>
</svg>