<svg version="1.1" id="Lager_1" xmlns="http://www.w3.org/2000/svg" xmlns:xlink="http://www.w3.org/1999/xlink" x="0px" y="0px"
	 width="498.345px" height="110.007px" viewBox="0 0 498.345 110.007" enable-background="new 0 0 498.345 110.007"
	 xml:space="preserve">
<polygon fill="#FFDB03" points="27.119,24.795 0,45.226 0,87.959 27.119,87.959 54.238,87.959 54.238,45.226 "/>
<polygon fill="#71B220" points="54.238,63.164 81.358,42.733 81.358,0 54.238,0 27.119,0 27.119,42.733 "/>
<g>
	<path d="M68.195,109.521v-5.043h2.31c0.912,0,1.763-1.096,1.763-1.885V74.089c0-0.791-0.851-1.885-1.763-1.885h-2.31v-5.227h18.172
		c10.575,0,17.078,4.012,17.078,13.311c0,9.178-6.564,13.311-17.321,13.311h-4.375v10.879h5.287v5.043H68.195z M81.749,88.31h4.375
		c6.139,0,7.597-3.342,7.597-7.9s-1.458-7.84-7.597-7.84h-4.375V88.31z"/>
	<path d="M105.752,104.478h2.127c0.729,0,1.519-0.852,1.519-1.52V84.603c0-0.668-0.79-1.641-1.519-1.641h-2.371v-5.348h10.879
		c1.033,0,1.702,0.91,1.823,4.619c2.127-2.613,4.619-4.924,8.812-4.924c0.668,0,1.337,0.121,1.945,0.305v6.562h-1.519
		c-4.619,0-7.415,0.973-9.177,1.945v18.355h4.437v5.043h-16.957V104.478z"/>
	<path d="M131.216,104.478h2.31c0.729,0,1.458-0.852,1.458-1.52V84.603c0-0.668-0.729-1.641-1.458-1.641h-2.553v-5.348h11.487
		c0.972,0,1.458,0.973,1.458,3.402v21.941c0,0.729,0.79,1.52,1.52,1.52h2.31v5.043h-16.531V104.478z M134.559,70.443
		c0-2.613,2.127-4.74,4.801-4.74s4.801,2.127,4.801,4.74s-2.127,4.68-4.801,4.68S134.559,73.056,134.559,70.443z"/>
	<path d="M148.961,84.664c-0.365-1.033-1.094-1.701-1.945-1.701h-1.155v-5.348h15.498v5.348h-4.011l6.503,18.232h0.122l5.166-14.221
		c0.851-2.371,1.094-4.012-1.58-4.012h-0.973v-5.348h13.492v5.348h-1.033c-0.972,0-1.823,0.729-2.31,1.885l-10.149,24.674h-7.658
		L148.961,84.664z"/>
	<path d="M180.077,100.283c0-6.684,5.227-9.723,12.581-9.723c2.674,0,4.497,0.242,6.503,0.729v-3.342c0-3.223-1.763-4.74-5.531-4.74
		c-3.829,0-5.773,1.457-7.354,2.855h-4.072v-6.504c2.978-1.336,6.989-2.43,13.188-2.43c8.265,0,12.641,2.674,12.641,9.967v15.863
		c0,0.729,0.79,1.52,1.52,1.52h1.702v4.254c-1.215,0.729-3.039,1.215-5.348,1.215c-3.708,0-5.591-1.459-6.381-4.012
		c-2.371,2.918-5.349,3.951-9.238,3.951C184.331,109.886,180.077,106.605,180.077,100.283z M199.161,102.412v-6.809
		c-1.398-0.242-2.978-0.363-4.68-0.363c-3.586,0-5.774,1.459-5.774,4.68s1.884,4.74,4.862,4.74
		C195.818,104.66,197.641,103.808,199.161,102.412z"/>
	<path d="M210.038,77.615h3.768v-8.51h8.874v8.51h6.442v5.348h-6.442v17.504c0,3.402,1.215,4.012,4.498,4.012h2.188v4.74
		c-1.337,0.424-3.221,0.789-5.713,0.789c-6.138,0-9.846-1.945-9.846-8.568V82.962h-3.768V77.615z"/>
	<path d="M231.429,104.478h2.127c0.729,0,1.519-0.852,1.519-1.52V84.603c0-0.668-0.79-1.641-1.519-1.641h-2.371v-5.348h10.879
		c1.033,0,1.641,0.85,1.823,4.193c2.674-2.25,6.503-4.68,11.365-4.68c3.464,0,6.625,1.154,7.718,4.982
		c2.734-2.369,6.625-4.982,11.67-4.982c4.254,0,8.082,1.762,8.082,7.961v17.869c0,0.729,0.791,1.52,1.52,1.52h1.701v5.043h-15.496
		v-5.043h3.402V87.886c0-3.1-1.033-3.83-3.828-3.83c-2.25,0-4.68,0.486-6.686,1.154v19.268h3.465v5.043H251.06v-5.043h3.403V87.886
		c0-3.1-1.033-3.83-3.829-3.83c-2.249,0-4.68,0.486-6.685,1.154v19.268h3.464v5.043h-15.984V104.478z"/>
	<path d="M286.915,100.283c0-6.684,5.227-9.723,12.58-9.723c2.674,0,4.498,0.242,6.502,0.729v-3.342c0-3.223-1.762-4.74-5.529-4.74
		c-3.83,0-5.773,1.457-7.354,2.855h-4.072v-6.504c2.977-1.336,6.988-2.43,13.188-2.43c8.266,0,12.643,2.674,12.643,9.967v15.863
		c0,0.729,0.789,1.52,1.518,1.52h1.703v4.254c-1.217,0.729-3.039,1.215-5.35,1.215c-3.707,0-5.59-1.459-6.381-4.012
		c-2.369,2.918-5.348,3.951-9.238,3.951C291.169,109.886,286.915,106.605,286.915,100.283z M291.229,70.685
		c0-2.43,2.006-4.436,4.559-4.436s4.559,2.006,4.559,4.436c0,2.492-2.006,4.438-4.559,4.438S291.229,73.177,291.229,70.685z
		 M305.997,102.412v-6.809c-1.396-0.242-2.977-0.363-4.68-0.363c-3.584,0-5.773,1.459-5.773,4.68s1.885,4.74,4.863,4.74
		C302.655,104.66,304.479,103.808,305.997,102.412z M302.897,70.685c0-2.43,2.006-4.436,4.559-4.436s4.559,2.006,4.559,4.436
		c0,2.492-2.006,4.438-4.559,4.438S302.897,73.177,302.897,70.685z"/>
	<path d="M320.157,104.478h2.127c0.729,0,1.52-0.852,1.52-1.52V73.845c0-0.668-0.791-1.641-1.52-1.641h-2.311v-5.227h11.184
		c0.973,0,1.52,0.73,1.52,2.066v24.189l8.021-7.84c0.973-1.033,0.73-2.432-0.486-2.432h-1.215v-5.348h14.404v5.348H351.7
		c-0.852,0-1.945,0.547-2.553,1.154l-6.807,6.625l8.326,12.033c0.85,1.217,1.52,1.703,2.369,1.703h0.607v5.043h-8.689l-8.691-12.885
		l-3.586,3.465v4.377h3.1v5.043h-15.619V104.478z"/>
	<path d="M355.708,104.478h2.371c0.729,0,1.52-0.852,1.52-1.52V73.845c0-0.668-0.791-1.641-1.52-1.641h-2.553v-5.227h11.426
		c1.033,0,1.52,0.73,1.52,2.066v33.914c0,0.729,0.852,1.52,1.52,1.52h2.492v5.043h-16.775V104.478z"/>
	<path d="M373.515,100.283c0-6.684,5.227-9.723,12.58-9.723c2.676,0,4.498,0.242,6.504,0.729v-3.342c0-3.223-1.762-4.74-5.531-4.74
		c-3.828,0-5.773,1.457-7.354,2.855h-4.072v-6.504c2.979-1.336,6.99-2.43,13.189-2.43c8.266,0,12.641,2.674,12.641,9.967v15.863
		c0,0.729,0.791,1.52,1.52,1.52h1.701v4.254c-1.215,0.729-3.039,1.215-5.348,1.215c-3.707,0-5.592-1.459-6.381-4.012
		c-2.371,2.918-5.35,3.951-9.238,3.951C377.769,109.886,373.515,106.605,373.515,100.283z M392.599,102.412v-6.809
		c-1.398-0.242-2.979-0.363-4.68-0.363c-3.586,0-5.773,1.459-5.773,4.68s1.883,4.74,4.861,4.74
		C389.257,104.66,391.079,103.808,392.599,102.412z"/>
	<path d="M406.757,104.478h2.127c0.73,0,1.52-0.852,1.52-1.52V84.603c0-0.668-0.789-1.641-1.52-1.641h-2.369v-5.348h10.879
		c1.033,0,1.701,0.91,1.822,4.619c2.127-2.613,4.619-4.924,8.812-4.924c0.67,0,1.338,0.121,1.945,0.305v6.562h-1.52
		c-4.619,0-7.414,0.973-9.178,1.945v18.355h4.438v5.043h-16.957V104.478z"/>
	<path d="M439.089,95.24c0.365,6.32,3.16,9.238,8.266,9.238c3.951,0,5.348-1.398,6.99-3.465h5.043v5.834
		c-2.613,1.58-6.076,3.1-12.762,3.1c-11.062,0-16.592-6.199-16.592-16.227c0-10.271,6.381-16.592,15.984-16.592
		c9.541,0,14.525,4.861,14.525,15.68c0,1.094-0.123,2.127-0.123,2.432H439.089z M439.21,90.195h12.459
		c-0.303-5.592-2.004-7.779-5.65-7.779C442.31,82.416,439.88,84.724,439.21,90.195z"/>
	<path d="M462.548,104.478h2.127c0.729,0,1.52-0.852,1.52-1.52V84.603c0-0.668-0.791-1.641-1.52-1.641h-2.371v-5.348h10.879
		c1.033,0,1.641,0.85,1.824,4.133c2.979-2.797,7.049-4.619,11.852-4.619c4.436,0,8.266,1.762,8.266,7.961v17.869
		c0,0.729,0.789,1.52,1.52,1.52h1.701v5.043h-15.742v-5.043h3.648v-16.35c0-3.16-1.217-4.072-4.195-4.072
		c-2.553,0-4.922,0.547-6.988,1.215v19.207h3.707v5.043h-16.227V104.478z"/>
</g>
</svg>