<?xml version="1.0" encoding="utf-8"?>
<!-- Generator: Adobe Illustrator 16.0.0, SVG Export Plug-In . SVG Version: 6.00 Build 0)  -->
<!DOCTYPE svg PUBLIC "-//W3C//DTD SVG 1.1//EN" "http://www.w3.org/Graphics/SVG/1.1/DTD/svg11.dtd">
<svg version="1.1" id="Layer_1" xmlns="http://www.w3.org/2000/svg" xmlns:xlink="http://www.w3.org/1999/xlink" x="0px" y="0px"
	 width="32px" height="32px" viewBox="0 0 32 32" enable-background="new 0 0 32 32" xml:space="preserve">
<path fill="#FFFFFF" d="M16,0C7.163,0,0,7.164,0,16c0,8.837,7.163,16,16,16c8.836,0,16-7.163,16-16C32,7.164,24.836,0,16,0z M16,31
	C7.716,31,1,24.284,1,16C1,7.717,7.716,1,16,1s15,6.717,15,15C31,24.284,24.284,31,16,31z"/>
<path fill="#FFFFFF" d="M16,16"/>
<g>
	<path fill="#FFFFFF" d="M24.259,10.567h-4.29v-0.29c0-1.528-1.244-2.772-2.772-2.772H7.741c-1.528,0-2.772,1.244-2.772,2.772v5.207
		c0,1.528,1.244,2.772,2.772,2.772h0.494v2.676c0,0.193,0.113,0.371,0.291,0.453c0.067,0.031,0.138,0.047,0.209,0.047
		c0.117,0,0.231-0.041,0.324-0.119l2.982-2.537c0.117,1.422,1.311,2.541,2.762,2.541h4.83l3.292,3.045
		c0.094,0.086,0.216,0.133,0.34,0.133c0.066,0,0.135-0.014,0.199-0.043c0.183-0.078,0.3-0.26,0.3-0.457v-2.678h0.494
		c1.529,0,2.772-1.242,2.772-2.77V13.34C27.031,11.812,25.788,10.567,24.259,10.567z M8.735,17.256H7.741
		c-0.977,0-1.772-0.795-1.772-1.772v-5.207c0-0.977,0.796-1.772,1.772-1.772h9.455c0.978,0,1.772,0.795,1.772,1.772v0.29h-4.165
		c-1.528,0-2.772,1.244-2.772,2.772v4.131L9.235,19.85v-2.094C9.235,17.479,9.012,17.256,8.735,17.256z M26.031,18.547
		c0,0.977-0.795,1.77-1.772,1.77h-0.994c-0.276,0-0.5,0.227-0.5,0.5v2.033l-2.596-2.398c-0.093-0.086-0.214-0.135-0.34-0.135h-5.025
		c-0.977,0-1.772-0.793-1.772-1.77V13.34c0-0.976,0.795-1.772,1.772-1.772h9.455c0.978,0,1.772,0.796,1.772,1.772V18.547z"/>
	<path fill="#FFFFFF" d="M23.75,13.335h-8.438c-0.276,0-0.5,0.224-0.5,0.5s0.224,0.5,0.5,0.5h8.438c0.276,0,0.5-0.224,0.5-0.5
		S24.026,13.335,23.75,13.335z"/>
	<path fill="#FFFFFF" d="M23.75,15.585h-8.438c-0.276,0-0.5,0.224-0.5,0.5s0.224,0.5,0.5,0.5h8.438c0.276,0,0.5-0.224,0.5-0.5
		S24.026,15.585,23.75,15.585z"/>
	<path fill="#FFFFFF" d="M20.031,17.834h-4.719c-0.276,0-0.5,0.225-0.5,0.5c0,0.277,0.224,0.5,0.5,0.5h4.719
		c0.276,0,0.5-0.223,0.5-0.5C20.531,18.059,20.308,17.834,20.031,17.834z"/>
</g>
</svg>
